<?xml version="1.0" encoding="utf-8" standalone="no"?>
<!DOCTYPE svg PUBLIC "-//W3C//DTD SVG 1.1//EN"
  "http://www.w3.org/Graphics/SVG/1.1/DTD/svg11.dtd">
<!-- Created with matplotlib (https://matplotlib.org/) -->
<svg height="170.754375pt" version="1.1" viewBox="0 0 630.085938 170.754375" width="630.085938pt" xmlns="http://www.w3.org/2000/svg" xmlns:xlink="http://www.w3.org/1999/xlink">
 <defs>
  <style type="text/css">
*{stroke-linecap:butt;stroke-linejoin:round;}
  </style>
 </defs>
 <g id="figure_1">
  <g id="patch_1">
   <path d="M 0 170.754375 
L 630.085938 170.754375 
L 630.085938 0 
L 0 0 
z
" style="fill:#ffffff;"/>
  </g>
  <g id="axes_1">
   <g id="patch_2">
    <path d="M 52.160938 133.198125 
L 610.160938 133.198125 
L 610.160938 22.318125 
L 52.160938 22.318125 
z
" style="fill:#ffffff;"/>
   </g>
   <g id="matplotlib.axis_1">
    <g id="xtick_1">
     <g id="line2d_1">
      <defs>
       <path d="M 0 0 
L 0 3.5 
" id="mdc01ab2edc" style="stroke:#000000;stroke-width:0.8;"/>
      </defs>
      <g>
       <use style="stroke:#000000;stroke-width:0.8;" x="52.160938" xlink:href="#mdc01ab2edc" y="133.198125"/>
      </g>
     </g>
     <g id="text_1">
      <!-- 0 -->
      <defs>
       <path d="M 31.78125 66.40625 
Q 24.171875 66.40625 20.328125 58.90625 
Q 16.5 51.421875 16.5 36.375 
Q 16.5 21.390625 20.328125 13.890625 
Q 24.171875 6.390625 31.78125 6.390625 
Q 39.453125 6.390625 43.28125 13.890625 
Q 47.125 21.390625 47.125 36.375 
Q 47.125 51.421875 43.28125 58.90625 
Q 39.453125 66.40625 31.78125 66.40625 
z
M 31.78125 74.21875 
Q 44.046875 74.21875 50.515625 64.515625 
Q 56.984375 54.828125 56.984375 36.375 
Q 56.984375 17.96875 50.515625 8.265625 
Q 44.046875 -1.421875 31.78125 -1.421875 
Q 19.53125 -1.421875 13.0625 8.265625 
Q 6.59375 17.96875 6.59375 36.375 
Q 6.59375 54.828125 13.0625 64.515625 
Q 19.53125 74.21875 31.78125 74.21875 
z
" id="DejaVuSans-48"/>
      </defs>
      <g transform="translate(48.979688 147.796563)scale(0.1 -0.1)">
       <use xlink:href="#DejaVuSans-48"/>
      </g>
     </g>
    </g>
    <g id="xtick_2">
     <g id="line2d_2">
      <g>
       <use style="stroke:#000000;stroke-width:0.8;" x="121.910938" xlink:href="#mdc01ab2edc" y="133.198125"/>
      </g>
     </g>
     <g id="text_2">
      <!-- 250 -->
      <defs>
       <path d="M 19.1875 8.296875 
L 53.609375 8.296875 
L 53.609375 0 
L 7.328125 0 
L 7.328125 8.296875 
Q 12.9375 14.109375 22.625 23.890625 
Q 32.328125 33.6875 34.8125 36.53125 
Q 39.546875 41.84375 41.421875 45.53125 
Q 43.3125 49.21875 43.3125 52.78125 
Q 43.3125 58.59375 39.234375 62.25 
Q 35.15625 65.921875 28.609375 65.921875 
Q 23.96875 65.921875 18.8125 64.3125 
Q 13.671875 62.703125 7.8125 59.421875 
L 7.8125 69.390625 
Q 13.765625 71.78125 18.9375 73 
Q 24.125 74.21875 28.421875 74.21875 
Q 39.75 74.21875 46.484375 68.546875 
Q 53.21875 62.890625 53.21875 53.421875 
Q 53.21875 48.921875 51.53125 44.890625 
Q 49.859375 40.875 45.40625 35.40625 
Q 44.1875 33.984375 37.640625 27.21875 
Q 31.109375 20.453125 19.1875 8.296875 
z
" id="DejaVuSans-50"/>
       <path d="M 10.796875 72.90625 
L 49.515625 72.90625 
L 49.515625 64.59375 
L 19.828125 64.59375 
L 19.828125 46.734375 
Q 21.96875 47.46875 24.109375 47.828125 
Q 26.265625 48.1875 28.421875 48.1875 
Q 40.625 48.1875 47.75 41.5 
Q 54.890625 34.8125 54.890625 23.390625 
Q 54.890625 11.625 47.5625 5.09375 
Q 40.234375 -1.421875 26.90625 -1.421875 
Q 22.3125 -1.421875 17.546875 -0.640625 
Q 12.796875 0.140625 7.71875 1.703125 
L 7.71875 11.625 
Q 12.109375 9.234375 16.796875 8.0625 
Q 21.484375 6.890625 26.703125 6.890625 
Q 35.15625 6.890625 40.078125 11.328125 
Q 45.015625 15.765625 45.015625 23.390625 
Q 45.015625 31 40.078125 35.4375 
Q 35.15625 39.890625 26.703125 39.890625 
Q 22.75 39.890625 18.8125 39.015625 
Q 14.890625 38.140625 10.796875 36.28125 
z
" id="DejaVuSans-53"/>
      </defs>
      <g transform="translate(112.367188 147.796563)scale(0.1 -0.1)">
       <use xlink:href="#DejaVuSans-50"/>
       <use x="63.623047" xlink:href="#DejaVuSans-53"/>
       <use x="127.246094" xlink:href="#DejaVuSans-48"/>
      </g>
     </g>
    </g>
    <g id="xtick_3">
     <g id="line2d_3">
      <g>
       <use style="stroke:#000000;stroke-width:0.8;" x="191.660938" xlink:href="#mdc01ab2edc" y="133.198125"/>
      </g>
     </g>
     <g id="text_3">
      <!-- 500 -->
      <g transform="translate(182.117188 147.796563)scale(0.1 -0.1)">
       <use xlink:href="#DejaVuSans-53"/>
       <use x="63.623047" xlink:href="#DejaVuSans-48"/>
       <use x="127.246094" xlink:href="#DejaVuSans-48"/>
      </g>
     </g>
    </g>
    <g id="xtick_4">
     <g id="line2d_4">
      <g>
       <use style="stroke:#000000;stroke-width:0.8;" x="261.410938" xlink:href="#mdc01ab2edc" y="133.198125"/>
      </g>
     </g>
     <g id="text_4">
      <!-- 750 -->
      <defs>
       <path d="M 8.203125 72.90625 
L 55.078125 72.90625 
L 55.078125 68.703125 
L 28.609375 0 
L 18.3125 0 
L 43.21875 64.59375 
L 8.203125 64.59375 
z
" id="DejaVuSans-55"/>
      </defs>
      <g transform="translate(251.867188 147.796563)scale(0.1 -0.1)">
       <use xlink:href="#DejaVuSans-55"/>
       <use x="63.623047" xlink:href="#DejaVuSans-53"/>
       <use x="127.246094" xlink:href="#DejaVuSans-48"/>
      </g>
     </g>
    </g>
    <g id="xtick_5">
     <g id="line2d_5">
      <g>
       <use style="stroke:#000000;stroke-width:0.8;" x="331.160937" xlink:href="#mdc01ab2edc" y="133.198125"/>
      </g>
     </g>
     <g id="text_5">
      <!-- 1000 -->
      <defs>
       <path d="M 12.40625 8.296875 
L 28.515625 8.296875 
L 28.515625 63.921875 
L 10.984375 60.40625 
L 10.984375 69.390625 
L 28.421875 72.90625 
L 38.28125 72.90625 
L 38.28125 8.296875 
L 54.390625 8.296875 
L 54.390625 0 
L 12.40625 0 
z
" id="DejaVuSans-49"/>
      </defs>
      <g transform="translate(318.435937 147.796563)scale(0.1 -0.1)">
       <use xlink:href="#DejaVuSans-49"/>
       <use x="63.623047" xlink:href="#DejaVuSans-48"/>
       <use x="127.246094" xlink:href="#DejaVuSans-48"/>
       <use x="190.869141" xlink:href="#DejaVuSans-48"/>
      </g>
     </g>
    </g>
    <g id="xtick_6">
     <g id="line2d_6">
      <g>
       <use style="stroke:#000000;stroke-width:0.8;" x="400.910938" xlink:href="#mdc01ab2edc" y="133.198125"/>
      </g>
     </g>
     <g id="text_6">
      <!-- 1250 -->
      <g transform="translate(388.185938 147.796563)scale(0.1 -0.1)">
       <use xlink:href="#DejaVuSans-49"/>
       <use x="63.623047" xlink:href="#DejaVuSans-50"/>
       <use x="127.246094" xlink:href="#DejaVuSans-53"/>
       <use x="190.869141" xlink:href="#DejaVuSans-48"/>
      </g>
     </g>
    </g>
    <g id="xtick_7">
     <g id="line2d_7">
      <g>
       <use style="stroke:#000000;stroke-width:0.8;" x="470.660938" xlink:href="#mdc01ab2edc" y="133.198125"/>
      </g>
     </g>
     <g id="text_7">
      <!-- 1500 -->
      <g transform="translate(457.935938 147.796563)scale(0.1 -0.1)">
       <use xlink:href="#DejaVuSans-49"/>
       <use x="63.623047" xlink:href="#DejaVuSans-53"/>
       <use x="127.246094" xlink:href="#DejaVuSans-48"/>
       <use x="190.869141" xlink:href="#DejaVuSans-48"/>
      </g>
     </g>
    </g>
    <g id="xtick_8">
     <g id="line2d_8">
      <g>
       <use style="stroke:#000000;stroke-width:0.8;" x="540.410938" xlink:href="#mdc01ab2edc" y="133.198125"/>
      </g>
     </g>
     <g id="text_8">
      <!-- 1750 -->
      <g transform="translate(527.685938 147.796563)scale(0.1 -0.1)">
       <use xlink:href="#DejaVuSans-49"/>
       <use x="63.623047" xlink:href="#DejaVuSans-55"/>
       <use x="127.246094" xlink:href="#DejaVuSans-53"/>
       <use x="190.869141" xlink:href="#DejaVuSans-48"/>
      </g>
     </g>
    </g>
    <g id="xtick_9">
     <g id="line2d_9">
      <g>
       <use style="stroke:#000000;stroke-width:0.8;" x="610.160938" xlink:href="#mdc01ab2edc" y="133.198125"/>
      </g>
     </g>
     <g id="text_9">
      <!-- 2000 -->
      <g transform="translate(597.435938 147.796563)scale(0.1 -0.1)">
       <use xlink:href="#DejaVuSans-50"/>
       <use x="63.623047" xlink:href="#DejaVuSans-48"/>
       <use x="127.246094" xlink:href="#DejaVuSans-48"/>
       <use x="190.869141" xlink:href="#DejaVuSans-48"/>
      </g>
     </g>
    </g>
    <g id="text_10">
     <!-- Array Index -->
     <defs>
      <path d="M 34.1875 63.1875 
L 20.796875 26.90625 
L 47.609375 26.90625 
z
M 28.609375 72.90625 
L 39.796875 72.90625 
L 67.578125 0 
L 57.328125 0 
L 50.6875 18.703125 
L 17.828125 18.703125 
L 11.1875 0 
L 0.78125 0 
z
" id="DejaVuSans-65"/>
      <path d="M 41.109375 46.296875 
Q 39.59375 47.171875 37.8125 47.578125 
Q 36.03125 48 33.890625 48 
Q 26.265625 48 22.1875 43.046875 
Q 18.109375 38.09375 18.109375 28.8125 
L 18.109375 0 
L 9.078125 0 
L 9.078125 54.6875 
L 18.109375 54.6875 
L 18.109375 46.1875 
Q 20.953125 51.171875 25.484375 53.578125 
Q 30.03125 56 36.53125 56 
Q 37.453125 56 38.578125 55.875 
Q 39.703125 55.765625 41.0625 55.515625 
z
" id="DejaVuSans-114"/>
      <path d="M 34.28125 27.484375 
Q 23.390625 27.484375 19.1875 25 
Q 14.984375 22.515625 14.984375 16.5 
Q 14.984375 11.71875 18.140625 8.90625 
Q 21.296875 6.109375 26.703125 6.109375 
Q 34.1875 6.109375 38.703125 11.40625 
Q 43.21875 16.703125 43.21875 25.484375 
L 43.21875 27.484375 
z
M 52.203125 31.203125 
L 52.203125 0 
L 43.21875 0 
L 43.21875 8.296875 
Q 40.140625 3.328125 35.546875 0.953125 
Q 30.953125 -1.421875 24.3125 -1.421875 
Q 15.921875 -1.421875 10.953125 3.296875 
Q 6 8.015625 6 15.921875 
Q 6 25.140625 12.171875 29.828125 
Q 18.359375 34.515625 30.609375 34.515625 
L 43.21875 34.515625 
L 43.21875 35.40625 
Q 43.21875 41.609375 39.140625 45 
Q 35.0625 48.390625 27.6875 48.390625 
Q 23 48.390625 18.546875 47.265625 
Q 14.109375 46.140625 10.015625 43.890625 
L 10.015625 52.203125 
Q 14.9375 54.109375 19.578125 55.046875 
Q 24.21875 56 28.609375 56 
Q 40.484375 56 46.34375 49.84375 
Q 52.203125 43.703125 52.203125 31.203125 
z
" id="DejaVuSans-97"/>
      <path d="M 32.171875 -5.078125 
Q 28.375 -14.84375 24.75 -17.8125 
Q 21.140625 -20.796875 15.09375 -20.796875 
L 7.90625 -20.796875 
L 7.90625 -13.28125 
L 13.1875 -13.28125 
Q 16.890625 -13.28125 18.9375 -11.515625 
Q 21 -9.765625 23.484375 -3.21875 
L 25.09375 0.875 
L 2.984375 54.6875 
L 12.5 54.6875 
L 29.59375 11.921875 
L 46.6875 54.6875 
L 56.203125 54.6875 
z
" id="DejaVuSans-121"/>
      <path id="DejaVuSans-32"/>
      <path d="M 9.8125 72.90625 
L 19.671875 72.90625 
L 19.671875 0 
L 9.8125 0 
z
" id="DejaVuSans-73"/>
      <path d="M 54.890625 33.015625 
L 54.890625 0 
L 45.90625 0 
L 45.90625 32.71875 
Q 45.90625 40.484375 42.875 44.328125 
Q 39.84375 48.1875 33.796875 48.1875 
Q 26.515625 48.1875 22.3125 43.546875 
Q 18.109375 38.921875 18.109375 30.90625 
L 18.109375 0 
L 9.078125 0 
L 9.078125 54.6875 
L 18.109375 54.6875 
L 18.109375 46.1875 
Q 21.34375 51.125 25.703125 53.5625 
Q 30.078125 56 35.796875 56 
Q 45.21875 56 50.046875 50.171875 
Q 54.890625 44.34375 54.890625 33.015625 
z
" id="DejaVuSans-110"/>
      <path d="M 45.40625 46.390625 
L 45.40625 75.984375 
L 54.390625 75.984375 
L 54.390625 0 
L 45.40625 0 
L 45.40625 8.203125 
Q 42.578125 3.328125 38.25 0.953125 
Q 33.9375 -1.421875 27.875 -1.421875 
Q 17.96875 -1.421875 11.734375 6.484375 
Q 5.515625 14.40625 5.515625 27.296875 
Q 5.515625 40.1875 11.734375 48.09375 
Q 17.96875 56 27.875 56 
Q 33.9375 56 38.25 53.625 
Q 42.578125 51.265625 45.40625 46.390625 
z
M 14.796875 27.296875 
Q 14.796875 17.390625 18.875 11.75 
Q 22.953125 6.109375 30.078125 6.109375 
Q 37.203125 6.109375 41.296875 11.75 
Q 45.40625 17.390625 45.40625 27.296875 
Q 45.40625 37.203125 41.296875 42.84375 
Q 37.203125 48.484375 30.078125 48.484375 
Q 22.953125 48.484375 18.875 42.84375 
Q 14.796875 37.203125 14.796875 27.296875 
z
" id="DejaVuSans-100"/>
      <path d="M 56.203125 29.59375 
L 56.203125 25.203125 
L 14.890625 25.203125 
Q 15.484375 15.921875 20.484375 11.0625 
Q 25.484375 6.203125 34.421875 6.203125 
Q 39.59375 6.203125 44.453125 7.46875 
Q 49.3125 8.734375 54.109375 11.28125 
L 54.109375 2.78125 
Q 49.265625 0.734375 44.1875 -0.34375 
Q 39.109375 -1.421875 33.890625 -1.421875 
Q 20.796875 -1.421875 13.15625 6.1875 
Q 5.515625 13.8125 5.515625 26.8125 
Q 5.515625 40.234375 12.765625 48.109375 
Q 20.015625 56 32.328125 56 
Q 43.359375 56 49.78125 48.890625 
Q 56.203125 41.796875 56.203125 29.59375 
z
M 47.21875 32.234375 
Q 47.125 39.59375 43.09375 43.984375 
Q 39.0625 48.390625 32.421875 48.390625 
Q 24.90625 48.390625 20.390625 44.140625 
Q 15.875 39.890625 15.1875 32.171875 
z
" id="DejaVuSans-101"/>
      <path d="M 54.890625 54.6875 
L 35.109375 28.078125 
L 55.90625 0 
L 45.3125 0 
L 29.390625 21.484375 
L 13.484375 0 
L 2.875 0 
L 24.125 28.609375 
L 4.6875 54.6875 
L 15.28125 54.6875 
L 29.78125 35.203125 
L 44.28125 54.6875 
z
" id="DejaVuSans-120"/>
     </defs>
     <g transform="translate(302.164844 161.474688)scale(0.1 -0.1)">
      <use xlink:href="#DejaVuSans-65"/>
      <use x="68.408203" xlink:href="#DejaVuSans-114"/>
      <use x="109.505859" xlink:href="#DejaVuSans-114"/>
      <use x="150.619141" xlink:href="#DejaVuSans-97"/>
      <use x="211.898438" xlink:href="#DejaVuSans-121"/>
      <use x="271.078125" xlink:href="#DejaVuSans-32"/>
      <use x="302.865234" xlink:href="#DejaVuSans-73"/>
      <use x="332.357422" xlink:href="#DejaVuSans-110"/>
      <use x="395.736328" xlink:href="#DejaVuSans-100"/>
      <use x="459.212891" xlink:href="#DejaVuSans-101"/>
      <use x="520.720703" xlink:href="#DejaVuSans-120"/>
     </g>
    </g>
   </g>
   <g id="matplotlib.axis_2">
    <g id="ytick_1">
     <g id="line2d_10">
      <defs>
       <path d="M 0 0 
L -3.5 0 
" id="mb20c512bb3" style="stroke:#000000;stroke-width:0.8;"/>
      </defs>
      <g>
       <use style="stroke:#000000;stroke-width:0.8;" x="52.160938" xlink:href="#mb20c512bb3" y="128.265928"/>
      </g>
     </g>
     <g id="text_11">
      <!-- −1.0 -->
      <defs>
       <path d="M 10.59375 35.5 
L 73.1875 35.5 
L 73.1875 27.203125 
L 10.59375 27.203125 
z
" id="DejaVuSans-8722"/>
       <path d="M 10.6875 12.40625 
L 21 12.40625 
L 21 0 
L 10.6875 0 
z
" id="DejaVuSans-46"/>
      </defs>
      <g transform="translate(20.878125 132.065146)scale(0.1 -0.1)">
       <use xlink:href="#DejaVuSans-8722"/>
       <use x="83.789062" xlink:href="#DejaVuSans-49"/>
       <use x="147.412109" xlink:href="#DejaVuSans-46"/>
       <use x="179.199219" xlink:href="#DejaVuSans-48"/>
      </g>
     </g>
    </g>
    <g id="ytick_2">
     <g id="line2d_11">
      <g>
       <use style="stroke:#000000;stroke-width:0.8;" x="52.160938" xlink:href="#mb20c512bb3" y="103.033972"/>
      </g>
     </g>
     <g id="text_12">
      <!-- −0.5 -->
      <g transform="translate(20.878125 106.833191)scale(0.1 -0.1)">
       <use xlink:href="#DejaVuSans-8722"/>
       <use x="83.789062" xlink:href="#DejaVuSans-48"/>
       <use x="147.412109" xlink:href="#DejaVuSans-46"/>
       <use x="179.199219" xlink:href="#DejaVuSans-53"/>
      </g>
     </g>
    </g>
    <g id="ytick_3">
     <g id="line2d_12">
      <g>
       <use style="stroke:#000000;stroke-width:0.8;" x="52.160938" xlink:href="#mb20c512bb3" y="77.802016"/>
      </g>
     </g>
     <g id="text_13">
      <!-- 0.0 -->
      <g transform="translate(29.257813 81.601235)scale(0.1 -0.1)">
       <use xlink:href="#DejaVuSans-48"/>
       <use x="63.623047" xlink:href="#DejaVuSans-46"/>
       <use x="95.410156" xlink:href="#DejaVuSans-48"/>
      </g>
     </g>
    </g>
    <g id="ytick_4">
     <g id="line2d_13">
      <g>
       <use style="stroke:#000000;stroke-width:0.8;" x="52.160938" xlink:href="#mb20c512bb3" y="52.57006"/>
      </g>
     </g>
     <g id="text_14">
      <!-- 0.5 -->
      <g transform="translate(29.257813 56.369279)scale(0.1 -0.1)">
       <use xlink:href="#DejaVuSans-48"/>
       <use x="63.623047" xlink:href="#DejaVuSans-46"/>
       <use x="95.410156" xlink:href="#DejaVuSans-53"/>
      </g>
     </g>
    </g>
    <g id="ytick_5">
     <g id="line2d_14">
      <g>
       <use style="stroke:#000000;stroke-width:0.8;" x="52.160938" xlink:href="#mb20c512bb3" y="27.338105"/>
      </g>
     </g>
     <g id="text_15">
      <!-- 1.0 -->
      <g transform="translate(29.257813 31.137323)scale(0.1 -0.1)">
       <use xlink:href="#DejaVuSans-49"/>
       <use x="63.623047" xlink:href="#DejaVuSans-46"/>
       <use x="95.410156" xlink:href="#DejaVuSans-48"/>
      </g>
     </g>
    </g>
    <g id="text_16">
     <!-- Value -->
     <defs>
      <path d="M 28.609375 0 
L 0.78125 72.90625 
L 11.078125 72.90625 
L 34.1875 11.53125 
L 57.328125 72.90625 
L 67.578125 72.90625 
L 39.796875 0 
z
" id="DejaVuSans-86"/>
      <path d="M 9.421875 75.984375 
L 18.40625 75.984375 
L 18.40625 0 
L 9.421875 0 
z
" id="DejaVuSans-108"/>
      <path d="M 8.5 21.578125 
L 8.5 54.6875 
L 17.484375 54.6875 
L 17.484375 21.921875 
Q 17.484375 14.15625 20.5 10.265625 
Q 23.53125 6.390625 29.59375 6.390625 
Q 36.859375 6.390625 41.078125 11.03125 
Q 45.3125 15.671875 45.3125 23.6875 
L 45.3125 54.6875 
L 54.296875 54.6875 
L 54.296875 0 
L 45.3125 0 
L 45.3125 8.40625 
Q 42.046875 3.421875 37.71875 1 
Q 33.40625 -1.421875 27.6875 -1.421875 
Q 18.265625 -1.421875 13.375 4.4375 
Q 8.5 10.296875 8.5 21.578125 
z
M 31.109375 56 
z
" id="DejaVuSans-117"/>
     </defs>
     <g transform="translate(14.798438 91.871406)rotate(-90)scale(0.1 -0.1)">
      <use xlink:href="#DejaVuSans-86"/>
      <use x="68.298828" xlink:href="#DejaVuSans-97"/>
      <use x="129.578125" xlink:href="#DejaVuSans-108"/>
      <use x="157.361328" xlink:href="#DejaVuSans-117"/>
      <use x="220.740234" xlink:href="#DejaVuSans-101"/>
     </g>
    </g>
   </g>
   <g id="line2d_15">
    <path clip-path="url(#p831c97af7e)" d="M 52.160938 110.447707 
L 52.439938 31.696407 
L 52.718938 84.536595 
L 52.997938 41.903768 
L 53.276938 30.744665 
L 53.555938 83.261445 
L 53.834938 29.885325 
L 54.392938 88.084839 
L 54.671938 34.682538 
L 55.229938 111.239286 
L 55.508938 32.976178 
L 55.787938 86.415439 
L 56.066938 45.613716 
L 56.345938 99.273203 
L 56.624938 77.892878 
L 56.903938 111.799859 
L 57.182938 38.13992 
L 57.461938 57.930927 
L 57.740938 56.044382 
L 58.019938 40.018764 
L 58.298938 33.552151 
L 58.577938 63.267153 
L 58.856938 43.434565 
L 59.135938 127.92866 
L 59.414938 65.304621 
L 59.693938 101.182848 
L 59.972938 35.991569 
L 60.251938 58.89191 
L 60.530938 97.160273 
L 60.809938 36.599883 
L 61.088938 77.852837 
L 61.367938 86.620264 
L 61.646938 115.020075 
L 62.204938 33.011598 
L 62.483938 36.436639 
L 62.762938 50.819039 
L 63.041938 88.9873 
L 63.320938 72.964762 
L 63.599938 34.611696 
L 63.878938 61.493031 
L 64.157938 111.987743 
L 64.436938 36.268775 
L 64.715938 80.578702 
L 64.994938 67.174225 
L 65.273938 121.035457 
L 65.552938 112.309611 
L 65.831938 45.867822 
L 66.389938 97.629984 
L 66.668938 57.250231 
L 66.947938 119.141212 
L 67.226938 36.733866 
L 67.784938 54.974057 
L 68.063938 73.445253 
L 68.342938 42.4089 
L 68.621938 28.982863 
L 68.900938 76.021734 
L 69.179938 65.132137 
L 69.458938 124.619121 
L 69.737938 128.158125 
L 70.295938 37.813432 
L 70.574938 110.418446 
L 71.132938 85.973449 
L 71.411938 90.539657 
L 71.690938 38.782115 
L 71.969938 70.594646 
L 72.248938 119.099631 
L 72.806938 69.538181 
L 73.085938 111.094522 
L 73.364938 53.763588 
L 73.643938 27.379686 
L 73.922938 49.693272 
L 74.201938 37.711789 
L 75.038938 87.083815 
L 75.317938 55.617792 
L 75.875938 119.088851 
L 76.154938 115.127877 
L 76.433938 41.586521 
L 76.712938 127.694574 
L 76.991938 104.801934 
L 77.270938 128.004121 
L 77.549938 48.042353 
L 77.828938 95.781941 
L 78.107938 72.068461 
L 78.665938 126.767472 
L 78.944938 49.676332 
L 79.223938 45.861662 
L 79.502938 68.64188 
L 79.781938 61.816439 
L 80.060938 71.20758 
L 80.339938 58.511521 
L 80.618938 63.512019 
L 80.897938 37.154296 
L 81.176938 57.419635 
L 81.455938 56.999205 
L 81.734938 47.512581 
L 82.013938 76.030974 
L 82.292938 61.711716 
L 82.571938 56.529494 
L 82.850938 94.040159 
L 83.129938 72.222464 
L 83.408938 60.059257 
L 83.966938 72.552032 
L 84.245938 88.366665 
L 84.524938 94.50525 
L 85.082938 48.630647 
L 85.361938 57.404234 
L 85.919938 37.605527 
L 86.198938 48.997176 
L 86.477938 53.83905 
L 86.756938 85.522218 
L 87.035938 96.239331 
L 87.593938 68.772783 
L 87.872938 48.048514 
L 88.151938 78.020701 
L 88.709938 57.63832 
L 89.267938 100.358929 
L 89.546938 95.800421 
L 89.825938 55.617792 
L 90.104938 35.586539 
L 90.383938 44.310845 
L 90.662938 70.061793 
L 90.941938 80.911349 
L 91.220938 54.26872 
L 91.499938 48.647588 
L 91.778938 86.560203 
L 92.336938 58.811828 
L 92.894938 93.778353 
L 93.173938 115.894815 
L 93.452938 79.061766 
L 93.731938 58.157312 
L 94.010938 83.521711 
L 94.289938 77.447808 
L 94.568938 87.986276 
L 94.847938 77.934459 
L 95.126938 41.877588 
L 95.405938 50.815959 
L 95.684938 64.482242 
L 95.963938 58.325176 
L 96.242938 36.538282 
L 96.800938 70.720929 
L 97.358938 125.41686 
L 97.637938 104.67257 
L 97.916938 60.404225 
L 98.195938 74.190631 
L 98.474938 102.476479 
L 98.753938 90.498076 
L 99.032938 88.047878 
L 99.311938 64.925772 
L 99.590938 55.151161 
L 99.869938 94.50525 
L 100.148938 104.64023 
L 100.427938 80.355396 
L 100.706938 90.065326 
L 100.985938 82.335883 
L 101.264938 41.317015 
L 101.543938 39.321127 
L 101.822938 44.384767 
L 102.101938 46.083427 
L 102.659938 75.904691 
L 102.938938 71.480167 
L 103.217938 73.154186 
L 103.496938 104.253681 
L 103.775938 116.321406 
L 104.054938 78.345649 
L 104.333938 84.502714 
L 104.612938 115.479006 
L 104.891938 115.631469 
L 105.170938 87.818413 
L 105.449938 72.0315 
L 105.728938 83.801998 
L 106.007938 85.690082 
L 106.286938 112.492875 
L 106.565938 88.012457 
L 106.844938 48.370381 
L 107.402938 65.481725 
L 107.681938 66.738395 
L 107.960938 65.118277 
L 108.239938 61.348268 
L 108.518938 50.88218 
L 108.797938 47.89759 
L 109.076938 57.62138 
L 109.355938 52.765645 
L 109.913938 69.049989 
L 110.192938 59.494064 
L 110.471938 75.336418 
L 110.750938 83.024279 
L 111.029938 66.373406 
L 111.308938 63.447337 
L 111.587938 69.568982 
L 112.145938 91.163372 
L 112.424938 84.625917 
L 112.703938 62.149086 
L 112.982938 53.512563 
L 113.261938 53.511022 
L 113.540938 43.810333 
L 113.819938 43.992058 
L 114.098938 51.946346 
L 114.656938 90.619739 
L 114.935938 89.449311 
L 115.493938 58.797967 
L 115.772938 63.331834 
L 116.051938 72.665995 
L 116.330938 62.677319 
L 116.609938 70.051013 
L 116.888938 90.984727 
L 117.167938 97.674645 
L 117.725938 46.246671 
L 118.004938 40.70562 
L 118.562938 75.533542 
L 118.841938 67.79486 
L 119.120938 51.984846 
L 119.678938 80.329216 
L 119.957938 66.732235 
L 120.236938 66.612112 
L 120.794938 104.295262 
L 121.073938 97.084811 
L 121.352938 68.794343 
L 121.631938 70.979655 
L 121.910938 80.430858 
L 122.189938 82.61771 
L 122.468938 82.857955 
L 122.747938 60.264082 
L 123.026938 46.975108 
L 123.305938 58.05105 
L 123.584938 61.731737 
L 123.863938 48.039273 
L 124.142938 45.433532 
L 124.700938 82.529928 
L 124.979938 109.33118 
L 125.258938 114.299338 
L 125.537938 82.443686 
L 125.816938 67.508413 
L 126.095938 88.1218 
L 126.374938 96.113048 
L 126.653938 89.042741 
L 127.211938 60.393445 
L 127.490938 74.888267 
L 127.769938 99.13768 
L 128.327938 85.061747 
L 128.606938 86.03351 
L 129.164938 41.069069 
L 129.443938 42.572144 
L 129.722938 45.884762 
L 130.001938 53.186075 
L 130.280938 67.79794 
L 130.559938 73.774821 
L 130.838938 72.425749 
L 131.396938 109.637648 
L 131.954938 81.3518 
L 132.512938 114.79985 
L 132.791938 101.24599 
L 133.070938 79.881065 
L 133.349938 77.912899 
L 133.628938 84.607437 
L 133.907938 98.664889 
L 134.186938 99.802976 
L 134.465938 68.384694 
L 134.744938 53.512563 
L 135.023938 61.89652 
L 135.302938 66.344146 
L 135.581938 66.165501 
L 135.860938 63.524339 
L 136.418938 49.958159 
L 136.976938 55.645513 
L 137.255938 57.836985 
L 137.534938 65.815913 
L 137.813938 64.542303 
L 138.092938 67.622376 
L 138.371938 79.151088 
L 138.650938 74.761984 
L 138.929938 65.169098 
L 139.208938 66.733775 
L 139.766938 85.623861 
L 140.045938 87.69213 
L 140.603938 58.229694 
L 141.440938 44.578812 
L 141.719938 48.565966 
L 141.998938 61.234305 
L 142.277938 80.182912 
L 142.556938 89.789659 
L 142.835938 82.62079 
L 143.114938 67.602355 
L 143.393938 61.399089 
L 143.672938 68.193729 
L 143.951938 67.873402 
L 144.230938 66.593631 
L 144.788938 93.998578 
L 145.067938 86.534022 
L 145.625938 44.163002 
L 145.904938 49.725613 
L 146.183938 66.790756 
L 146.462938 71.788174 
L 146.741938 60.248682 
L 147.020938 60.254842 
L 147.299938 74.14443 
L 147.578938 73.617737 
L 147.857938 66.895479 
L 148.136938 75.231695 
L 148.415938 93.696731 
L 148.694938 100.232646 
L 149.252938 70.044853 
L 149.810938 81.450362 
L 150.089938 82.63927 
L 150.368938 71.686532 
L 150.647938 54.103936 
L 150.926938 53.019751 
L 151.205938 60.250222 
L 151.484938 55.343666 
L 151.763938 47.358577 
L 152.042938 54.288741 
L 152.879938 111.136103 
L 153.158938 97.959552 
L 153.437938 75.033031 
L 153.716938 77.814336 
L 153.995938 91.831747 
L 154.274938 92.282978 
L 154.553938 82.677771 
L 154.832938 68.64034 
L 155.111938 67.844141 
L 155.390938 86.828169 
L 155.669938 95.31377 
L 155.948938 88.415947 
L 156.227938 85.392855 
L 156.506938 74.16445 
L 156.785938 52.13115 
L 157.064938 42.539803 
L 157.343938 44.900679 
L 157.622938 50.101382 
L 158.180938 70.925754 
L 158.459938 73.194227 
L 158.738938 80.401597 
L 159.017938 98.637168 
L 159.296938 102.781406 
L 159.575938 88.921079 
L 159.854938 90.196229 
L 160.133938 106.586836 
L 160.412938 107.418455 
L 160.970938 78.875421 
L 161.249938 81.191636 
L 161.807938 98.806572 
L 162.086938 83.966782 
L 162.365938 61.285126 
L 162.644938 58.106491 
L 162.923938 64.394459 
L 163.202938 66.485829 
L 163.481938 65.104416 
L 163.760938 60.391905 
L 164.039938 53.745108 
L 164.318938 52.13269 
L 164.876938 57.162449 
L 165.434938 65.432444 
L 165.713938 66.317965 
L 165.992938 73.476054 
L 166.271938 76.975017 
L 166.550938 70.121855 
L 166.829938 66.188602 
L 167.108938 71.027396 
L 167.666938 86.481661 
L 167.945938 80.52788 
L 168.503938 56.547974 
L 169.061938 47.529521 
L 169.340938 47.196873 
L 169.619938 55.357526 
L 170.177938 84.843062 
L 170.456938 86.03659 
L 171.014938 64.767148 
L 171.293938 65.056675 
L 171.572938 68.22915 
L 171.851938 67.445272 
L 172.130938 73.614657 
L 172.409938 87.042234 
L 172.688938 90.017584 
L 173.525938 47.561862 
L 174.083938 69.459639 
L 174.362938 66.253283 
L 174.641938 60.60289 
L 175.199938 73.959625 
L 175.478938 70.406761 
L 175.757938 71.19834 
L 176.315938 96.581219 
L 176.594938 91.260394 
L 176.873938 76.468345 
L 177.152938 72.994023 
L 177.710938 81.960114 
L 177.989938 77.176761 
L 178.547938 54.046955 
L 178.826938 57.057726 
L 179.105938 58.197353 
L 179.384938 51.880124 
L 179.663938 51.362672 
L 179.942938 63.666022 
L 180.500938 102.841467 
L 180.779938 104.013435 
L 181.058938 86.321497 
L 181.337938 76.451404 
L 181.895938 91.771686 
L 182.174938 87.2871 
L 182.732938 68.433975 
L 183.011938 77.346165 
L 183.290938 90.804543 
L 183.569938 91.583801 
L 183.848938 86.721907 
L 184.127938 79.737842 
L 184.685938 47.945331 
L 184.964938 44.401707 
L 185.243938 48.107035 
L 186.638938 89.284527 
L 186.917938 100.251126 
L 187.475938 89.323028 
L 188.033938 106.418972 
L 188.312938 98.443123 
L 188.591938 84.456513 
L 188.870938 79.988868 
L 189.149938 86.105892 
L 189.428938 94.737796 
L 189.707938 91.11409 
L 190.265938 60.057717 
L 190.544938 61.580813 
L 190.823938 65.68655 
L 191.102938 66.034598 
L 191.381938 63.048468 
L 191.939938 53.435561 
L 192.218938 54.011534 
L 192.497938 56.477133 
L 193.892938 75.276356 
L 194.171938 73.633138 
L 194.450938 68.347733 
L 194.729938 68.792803 
L 195.287938 83.270685 
L 195.566938 83.390808 
L 196.403938 54.815433 
L 196.682938 50.395529 
L 196.961938 47.971512 
L 197.240938 51.807742 
L 198.077938 85.286593 
L 198.356938 80.544821 
L 198.635938 70.123395 
L 198.914938 65.170638 
L 199.751938 70.674728 
L 200.309938 88.315844 
L 200.588938 81.930854 
L 201.146938 50.953022 
L 201.425938 53.598805 
L 201.704938 64.329778 
L 201.983938 68.055126 
L 202.262938 63.715303 
L 202.541938 64.283577 
L 202.820938 70.827191 
L 203.099938 72.294846 
L 203.378938 70.942694 
L 203.657938 77.765055 
L 203.936938 90.202389 
L 204.215938 93.598169 
L 204.773938 74.792785 
L 205.052938 75.829229 
L 205.331938 80.221413 
L 205.610938 79.531477 
L 206.168938 59.004332 
L 206.447938 55.996641 
L 206.726938 58.031029 
L 207.284938 52.14501 
L 207.563938 57.920147 
L 208.400938 102.913849 
L 208.679938 94.819418 
L 208.958938 81.314839 
L 209.237938 80.51094 
L 209.516938 88.018617 
L 209.795938 89.295307 
L 210.353938 72.182423 
L 210.632938 72.987862 
L 211.190938 90.926206 
L 211.469938 88.925699 
L 211.748938 83.121302 
L 212.585938 46.805704 
L 212.864938 46.885786 
L 213.143938 52.526939 
L 213.701938 69.321036 
L 213.980938 74.56332 
L 214.817938 97.46828 
L 215.096938 92.115114 
L 215.375938 93.334823 
L 215.654938 101.711081 
L 215.933938 101.937466 
L 216.491938 82.134138 
L 216.770938 82.942657 
L 217.049938 90.168508 
L 217.328938 92.623326 
L 217.607938 81.839991 
L 217.886938 66.622892 
L 218.165938 61.158843 
L 218.723938 66.09928 
L 219.002938 64.807189 
L 219.560938 55.905779 
L 219.839938 54.205579 
L 220.118938 55.694794 
L 221.234938 68.278431 
L 221.513938 72.769177 
L 221.792938 74.521739 
L 222.350938 68.754302 
L 222.629938 72.356447 
L 222.908938 79.449855 
L 223.187938 83.219864 
L 223.466938 78.38261 
L 224.024938 58.623943 
L 224.582938 49.756414 
L 224.861938 50.44789 
L 225.140938 58.006389 
L 225.698938 81.490403 
L 225.977938 82.813294 
L 226.535938 67.850301 
L 226.814938 66.253283 
L 227.372938 69.524321 
L 227.651938 75.522762 
L 227.930938 84.166986 
L 228.209938 84.975505 
L 229.046938 52.787205 
L 229.604938 66.424227 
L 229.883938 66.12392 
L 230.162938 64.275877 
L 230.720938 71.686532 
L 230.999938 71.743513 
L 231.278938 74.423176 
L 231.836938 91.617682 
L 232.115938 88.452908 
L 232.394938 79.23733 
L 232.673938 75.361058 
L 233.231938 79.834864 
L 233.510938 74.99299 
L 234.068938 57.906286 
L 234.347938 57.430415 
L 234.626938 57.182469 
L 234.905938 54.299521 
L 235.184938 55.488429 
L 235.463938 66.12854 
L 236.021938 97.580703 
L 236.300938 98.446203 
L 236.858938 80.849748 
L 237.416938 88.439047 
L 237.695938 85.206511 
L 237.974938 76.822553 
L 238.253938 72.689095 
L 238.532938 78.454991 
L 238.811938 87.245519 
L 239.090938 89.683397 
L 239.369938 85.859486 
L 239.648938 77.426247 
L 240.206938 51.997167 
L 240.485938 47.46484 
L 240.764938 50.267706 
L 242.438938 95.584816 
L 242.717938 94.451349 
L 242.996938 92.426201 
L 243.554938 101.344552 
L 243.833938 96.18235 
L 244.112938 86.478581 
L 244.391938 82.443686 
L 244.949938 91.124871 
L 245.228938 87.042234 
L 245.786938 64.169614 
L 246.065938 62.843643 
L 246.344938 65.26458 
L 246.623938 65.70041 
L 246.902938 63.014587 
L 247.460938 55.51153 
L 247.739938 55.408347 
L 248.018938 57.579799 
L 249.413938 73.72862 
L 249.692938 72.924721 
L 249.971938 70.098754 
L 250.250938 70.700908 
L 250.808938 81.264018 
L 251.087938 80.741945 
L 252.203938 51.960206 
L 252.482938 50.655795 
L 252.761938 54.698391 
L 253.598938 82.064837 
L 253.877938 79.072546 
L 254.435938 67.266627 
L 254.714938 67.172685 
L 254.993938 68.775863 
L 255.272938 72.629034 
L 255.830938 84.436493 
L 256.109938 78.973984 
L 256.667937 55.764096 
L 256.946938 56.498693 
L 257.225938 63.180911 
L 257.504938 66.504309 
L 257.783938 65.452464 
L 258.062938 66.253283 
L 258.341938 69.884689 
L 258.899938 73.177287 
L 259.178938 79.114127 
L 259.457938 87.539666 
L 259.736938 89.791199 
L 260.294938 77.310744 
L 260.573937 76.71321 
L 260.852937 78.904682 
L 261.131938 77.423167 
L 261.968938 58.07107 
L 262.247938 57.716862 
L 262.526938 56.182986 
L 262.805938 55.351366 
L 263.084938 61.148063 
L 263.921938 97.609964 
L 264.200938 92.846631 
L 264.479938 84.225508 
L 264.758938 82.399025 
L 265.037937 86.118212 
L 265.316937 86.641825 
L 265.874938 74.817426 
L 266.153938 75.618244 
L 266.711938 88.251163 
L 266.990938 87.572007 
L 267.269938 81.565865 
L 268.106938 50.292347 
L 268.385938 49.445327 
L 268.664938 54.293361 
L 270.059938 91.742425 
L 270.338938 94.674654 
L 270.617938 93.126918 
L 270.896938 94.437489 
L 271.175938 98.808112 
L 271.454938 98.344561 
L 272.012938 84.32715 
L 272.291938 84.279409 
L 272.570938 88.532989 
L 272.849938 88.857937 
L 273.686937 63.792305 
L 273.965937 64.329778 
L 274.244938 65.729671 
L 274.523938 64.625465 
L 275.081938 57.496637 
L 275.360938 55.905779 
L 275.639938 56.919123 
L 276.476938 65.825153 
L 277.034938 72.310246 
L 277.313938 73.415992 
L 277.871938 70.546905 
L 278.150937 73.411372 
L 278.429938 78.585895 
L 278.708938 80.93907 
L 278.987938 76.964236 
L 279.824938 54.605988 
L 280.103938 51.838543 
L 280.382938 53.179915 
L 280.661938 60.039237 
L 281.219938 79.086406 
L 281.498938 80.51402 
L 282.056938 69.670624 
L 282.335938 67.431411 
L 282.614937 68.170629 
L 282.893938 70.844132 
L 283.451938 82.032496 
L 283.730938 81.627466 
L 284.567938 56.564915 
L 285.404938 66.214782 
L 285.683938 66.09158 
L 286.520938 72.612093 
L 286.799937 76.178818 
L 287.357938 88.448287 
L 287.636938 86.578683 
L 287.915938 80.461659 
L 288.194938 77.027378 
L 288.473938 77.808176 
L 288.752938 78.156224 
L 289.031938 73.851823 
L 289.589938 60.267162 
L 289.868938 58.291295 
L 290.426938 56.207626 
L 290.705938 58.640884 
L 290.984938 68.169089 
L 291.542938 93.587389 
L 291.821938 94.879479 
L 292.379938 83.201384 
L 292.658938 84.130025 
L 292.937938 86.209075 
L 293.216938 83.675715 
L 293.495938 77.880558 
L 293.774938 75.268656 
L 294.053938 79.154168 
L 294.332938 85.346654 
L 294.611938 87.70907 
L 294.890938 84.433413 
L 295.448937 64.985833 
L 295.727938 54.861634 
L 296.006938 50.42787 
L 296.285938 52.386796 
L 297.122938 72.336427 
L 297.959938 92.900533 
L 298.238938 93.578149 
L 298.517938 93.462646 
L 299.075938 98.159757 
L 299.354938 94.363567 
L 299.633938 87.495005 
L 299.912937 84.173146 
L 300.470938 88.477548 
L 300.749938 84.598197 
L 301.307938 66.824637 
L 301.586938 64.335938 
L 301.865938 65.2846 
L 302.144938 65.429364 
L 302.423938 63.197851 
L 302.981938 57.123948 
L 303.260938 56.840581 
L 303.539938 58.642424 
L 304.934938 72.961682 
L 305.213938 72.632114 
L 305.492938 71.226061 
L 305.771938 72.096181 
L 306.329938 79.723981 
L 306.608938 78.927783 
L 307.166938 64.642405 
L 307.724938 53.714307 
L 308.003938 53.015131 
L 308.282938 57.033086 
L 309.119937 79.760942 
L 309.398937 77.98066 
L 309.956938 68.735822 
L 310.235938 68.001225 
L 310.514938 69.673704 
L 311.351938 81.749129 
L 311.630938 77.047398 
L 312.188938 59.193757 
L 312.467938 58.770247 
L 313.025937 65.902155 
L 313.304937 66.385726 
L 313.583937 67.38983 
L 314.420938 74.464757 
L 314.978938 85.671602 
L 315.257938 87.319441 
L 315.815938 78.726038 
L 316.094938 77.426247 
L 316.373938 77.97912 
L 316.652938 76.040214 
L 317.489937 59.649607 
L 318.047937 57.20711 
L 318.326937 57.832365 
L 318.605938 63.693743 
L 319.163938 87.793772 
L 319.442938 93.904636 
L 319.721938 91.325075 
L 320.000938 85.6023 
L 320.279938 83.547892 
L 320.558938 85.021707 
L 320.837938 84.799941 
L 321.395938 76.600788 
L 321.674937 77.224502 
L 322.232937 86.353838 
L 322.511937 85.905687 
L 322.790938 80.310735 
L 323.627938 53.147574 
L 323.906938 51.935565 
L 324.185938 55.862658 
L 325.859938 92.931333 
L 326.138937 93.20546 
L 326.417937 94.512951 
L 326.696937 96.815305 
L 326.975937 95.892823 
L 327.533938 85.674682 
L 327.812938 85.055587 
L 328.091938 87.165437 
L 328.370938 86.363078 
L 329.207938 65.823613 
L 329.486938 65.070535 
L 329.765938 65.606468 
L 330.044938 64.583884 
L 330.602937 58.801047 
L 330.881937 57.398074 
L 331.160937 58.143452 
L 331.718938 63.345695 
L 332.555938 72.005319 
L 332.834938 72.897 
L 333.113938 72.0469 
L 333.392938 71.783554 
L 333.671938 74.13981 
L 333.950938 77.877478 
L 334.229938 79.295851 
L 334.508938 75.920092 
L 335.345937 56.213786 
L 335.624937 53.852911 
L 335.903938 55.479189 
L 336.182938 61.620854 
L 336.740938 77.332305 
L 337.019938 78.849241 
L 337.856938 68.557178 
L 338.135938 69.017649 
L 338.414938 71.775854 
L 338.972938 80.378497 
L 339.251937 79.365153 
L 340.088938 59.358541 
L 340.367938 61.200424 
L 340.646938 64.694767 
L 340.925938 66.376486 
L 341.204938 67.106464 
L 341.762938 70.999675 
L 342.041938 73.288169 
L 342.320938 77.076659 
L 342.878938 86.321497 
L 343.157938 85.211131 
L 343.715937 78.069982 
L 343.994937 77.704994 
L 344.273937 77.025838 
L 344.552938 73.197307 
L 345.110938 61.904221 
L 345.389938 59.31696 
L 345.668938 58.120351 
L 345.947938 57.924767 
L 346.226938 61.103402 
L 346.784938 81.490403 
L 347.063938 90.588938 
L 347.342938 92.318399 
L 347.900937 84.439573 
L 348.179937 84.154666 
L 348.458937 84.767601 
L 348.737938 82.659291 
L 349.016938 78.641336 
L 349.295938 76.930355 
L 349.574938 79.65468 
L 349.853938 84.128485 
L 350.132938 85.962669 
L 350.411938 83.002719 
L 350.969938 65.777412 
L 351.248938 57.136268 
L 351.527938 53.045932 
L 351.806938 54.376523 
L 352.364937 66.005338 
L 353.480938 91.149511 
L 353.759938 92.763469 
L 354.038938 93.538108 
L 354.317938 95.307609 
L 354.596938 95.982145 
L 354.875938 92.969834 
L 355.154938 87.963176 
L 355.433938 85.214211 
L 355.991938 86.584843 
L 356.270938 82.971918 
L 356.828937 68.64034 
L 357.107937 65.69425 
L 357.386938 65.587988 
L 357.665938 65.349282 
L 357.944938 63.473518 
L 358.502938 58.49458 
L 358.781938 58.171173 
L 359.060938 59.660388 
L 360.455938 72.558192 
L 360.734938 72.578213 
L 361.013937 72.03304 
L 361.292937 73.058704 
L 361.850938 78.570494 
L 362.129938 77.612592 
L 362.687938 65.495585 
L 363.245938 55.488429 
L 363.524938 55.129601 
L 363.803938 58.935031 
L 364.640938 78.083843 
L 364.919938 77.12594 
L 365.477937 69.863129 
L 365.756937 68.966827 
L 366.035938 70.543825 
L 366.593938 78.37799 
L 366.872938 79.830244 
L 367.151938 75.787648 
L 367.709938 61.696316 
L 367.988938 60.630611 
L 368.546938 65.782032 
L 369.104938 68.139828 
L 369.662937 72.256345 
L 369.941937 75.234775 
L 370.499938 84.31175 
L 370.778938 85.60692 
L 371.615938 77.885178 
L 371.894938 77.373886 
L 372.173938 75.165474 
L 373.010938 60.954018 
L 373.289938 59.099814 
L 373.568938 58.417578 
L 373.847938 59.880613 
L 374.126937 65.641889 
L 374.684938 85.874887 
L 374.963938 91.180312 
L 375.242938 90.034525 
L 375.521938 86.173654 
L 375.800938 84.166986 
L 376.079938 84.32869 
L 376.358938 83.595633 
L 376.916938 77.786616 
L 377.195938 78.280967 
L 377.753938 84.900044 
L 378.032938 84.348711 
L 378.311937 79.266591 
L 379.148938 55.545411 
L 379.427938 54.193259 
L 379.706938 57.348793 
L 380.543938 76.151097 
L 381.101938 88.57303 
L 381.380938 91.673124 
L 382.217938 95.287589 
L 382.496938 94.143342 
L 383.054937 86.412359 
L 383.333938 85.423656 
L 383.612938 86.095112 
L 383.891938 84.638237 
L 384.728938 67.38059 
L 385.007938 65.883675 
L 385.286938 65.714271 
L 385.565938 64.679366 
L 386.123938 59.931434 
L 386.402938 58.722506 
L 386.681938 59.293859 
L 387.239937 63.938609 
L 388.076938 71.822055 
L 388.355938 72.673695 
L 388.634938 72.414969 
L 388.913938 72.650594 
L 389.750938 78.085383 
L 390.029938 75.125433 
L 390.866938 57.787703 
L 391.145938 55.759476 
L 391.424937 57.447355 
L 391.982938 70.234277 
L 392.261938 76.043295 
L 392.540938 77.609511 
L 392.819938 75.217835 
L 393.098938 71.657271 
L 393.377938 69.582842 
L 393.656938 69.91703 
L 393.935938 72.46271 
L 394.493938 79.078706 
L 394.772938 77.808176 
L 395.609938 61.496111 
L 395.888937 62.255349 
L 396.446938 66.601332 
L 397.004938 69.267135 
L 397.562938 73.827182 
L 398.399938 84.816882 
L 398.678938 84.173146 
L 399.236938 78.675217 
L 399.794938 76.300481 
L 400.073937 72.824619 
L 400.631938 63.15011 
L 400.910938 60.382665 
L 401.189938 59.139855 
L 401.468938 59.521784 
L 401.747938 63.060788 
L 402.584938 88.312764 
L 402.863938 90.351772 
L 403.421938 85.023247 
L 403.700938 84.119245 
L 403.979938 83.838959 
L 404.258938 82.009395 
L 404.537937 79.161868 
L 404.816937 78.028401 
L 405.095938 80.001188 
L 405.374938 83.244505 
L 405.653938 84.488854 
L 405.932938 81.727569 
L 406.490938 66.53511 
L 406.769938 59.047453 
L 407.048938 55.328265 
L 407.327938 56.212246 
L 407.885938 66.502769 
L 409.001937 89.875901 
L 409.280937 91.968811 
L 409.838938 94.351247 
L 410.117938 94.377427 
L 410.396938 91.890269 
L 410.954938 85.756304 
L 411.233938 85.60076 
L 411.512938 85.215751 
L 411.791938 81.836911 
L 412.349938 69.93859 
L 412.628938 66.855438 
L 413.186937 65.449384 
L 413.465937 63.810786 
L 414.023938 59.695809 
L 414.302938 59.383181 
L 414.581938 60.633691 
L 415.139938 65.621868 
L 415.697938 70.864152 
L 415.976938 72.359528 
L 416.255938 72.649054 
L 416.534938 72.638274 
L 416.813938 73.71784 
L 417.371938 77.704994 
L 417.650937 76.630048 
L 418.208938 66.176282 
L 418.766938 57.194789 
L 419.045938 57.026926 
L 419.324938 60.519728 
L 420.161938 76.845653 
L 420.440938 76.440624 
L 420.998938 70.76405 
L 421.277938 69.91087 
L 421.556938 71.321543 
L 422.114937 77.692673 
L 422.393938 78.430351 
L 422.672938 74.957569 
L 423.230938 63.57978 
L 423.509938 62.193748 
L 424.904938 70.426782 
L 425.462938 75.713727 
L 426.020938 83.276845 
L 426.299937 84.361031 
L 426.578937 82.579209 
L 427.136938 78.146984 
L 427.415938 76.984257 
L 427.694938 74.628001 
L 428.531938 62.087485 
L 428.810938 60.122399 
L 429.089938 59.700429 
L 429.368938 61.622394 
L 429.647938 67.138804 
L 430.205938 84.368731 
L 430.484938 89.101263 
L 430.763937 88.897978 
L 431.321938 84.436493 
L 431.600938 83.855899 
L 431.879938 82.820995 
L 432.437938 78.579734 
L 432.716938 78.990924 
L 433.274938 83.745016 
L 433.553938 83.001179 
L 433.832938 78.40263 
L 434.669938 57.599819 
L 434.948937 56.210706 
L 435.227937 58.768707 
L 435.785938 69.875449 
L 436.622938 87.528886 
L 436.901938 90.65978 
L 437.459938 93.433385 
L 437.738938 94.032459 
L 438.017938 92.826611 
L 438.575938 86.746547 
L 438.854938 85.520678 
L 439.133938 85.255792 
L 439.412937 83.410828 
L 440.249938 68.584898 
L 440.528938 66.675253 
L 440.807938 65.985317 
L 441.086938 64.893431 
L 441.644938 60.933998 
L 441.923938 59.905253 
L 442.202938 60.364184 
L 442.481938 62.092105 
L 443.597938 71.735813 
L 443.876937 72.610553 
L 444.155938 72.747617 
L 444.434938 73.271229 
L 444.992938 76.873374 
L 445.271938 77.179841 
L 445.550938 74.515578 
L 446.387938 59.270758 
L 446.666938 57.524357 
L 446.945938 59.153716 
L 448.061937 76.667009 
L 448.340938 75.039191 
L 448.898938 70.486843 
L 449.177938 70.76097 
L 449.456938 72.984782 
L 450.014938 78.056122 
L 450.293938 76.71629 
L 451.130938 63.185531 
L 451.409938 63.294874 
L 452.246938 68.23993 
L 452.804938 71.668051 
L 453.362938 77.709614 
L 453.920938 83.698815 
L 454.199938 83.356927 
L 455.036938 77.571011 
L 455.315938 75.84617 
L 455.873938 68.24763 
L 456.431938 61.43913 
L 456.710938 60.268702 
L 456.989938 61.003299 
L 457.268938 64.648565 
L 458.105938 86.557123 
L 458.384938 88.776315 
L 458.663938 87.396443 
L 458.942938 85.211131 
L 459.779938 81.598206 
L 460.058938 79.519157 
L 460.337938 78.766079 
L 460.616938 80.218333 
L 460.895938 82.548408 
L 461.174937 83.261445 
L 461.453938 80.643383 
L 462.569938 57.322612 
L 462.848938 57.895506 
L 463.127938 61.620854 
L 464.522938 88.868717 
L 464.801938 91.189552 
L 465.359938 93.414905 
L 465.638938 93.117678 
L 465.917938 91.020148 
L 466.475938 85.967289 
L 467.033938 84.202407 
L 467.312938 81.022232 
L 467.870938 70.901113 
L 468.149938 67.833361 
L 469.265938 62.259969 
L 469.544938 60.767674 
L 469.823937 60.487387 
L 470.102938 61.559253 
L 470.660938 66.12238 
L 471.218938 70.907273 
L 471.497938 72.285606 
L 472.055938 73.104905 
L 472.334938 74.16907 
L 472.892938 77.042778 
L 473.171938 75.887751 
L 473.729938 66.758415 
L 474.287938 58.785647 
L 474.566938 58.728666 
L 474.845938 61.87034 
L 475.682938 75.918552 
L 475.961938 75.892371 
L 476.519938 71.500187 
L 476.798938 70.76713 
L 477.077938 71.991459 
L 477.635938 77.096679 
L 477.914938 77.395446 
L 478.193938 74.406236 
L 478.751938 65.044355 
L 479.030938 63.530499 
L 479.309938 64.482242 
L 480.704938 73.060244 
L 481.541938 82.462166 
L 481.820938 83.413909 
L 482.099938 82.171099 
L 482.657938 78.270187 
L 482.936938 76.730151 
L 483.215938 74.309214 
L 484.052938 63.100829 
L 484.331938 61.192724 
L 484.610938 60.980199 
L 484.889938 63.12547 
L 485.168938 68.310772 
L 485.726938 83.182903 
L 486.005938 87.468824 
L 486.284938 87.881554 
L 486.842938 84.478074 
L 487.400938 82.320483 
L 487.958938 79.115667 
L 488.237938 79.457555 
L 488.795938 82.802514 
L 489.074938 81.869252 
L 489.353938 77.697294 
L 490.190938 59.384721 
L 490.469938 58.014089 
L 490.748938 60.119319 
L 491.306938 70.261998 
L 492.143938 86.674166 
L 492.422938 89.785039 
L 492.980938 92.678767 
L 493.259938 92.957514 
L 493.538938 91.784006 
L 494.096938 86.820469 
L 494.933938 82.516067 
L 496.049938 67.408311 
L 496.607938 65.199898 
L 497.165938 61.839539 
L 497.444938 60.970959 
L 497.723938 61.359048 
L 498.002938 62.886764 
L 499.118938 71.720412 
L 499.397938 72.638274 
L 499.676938 73.040224 
L 499.955938 73.72092 
L 500.513938 76.514546 
L 500.792938 76.491445 
L 501.071938 74.056648 
L 501.908938 60.641391 
L 502.187938 59.138315 
L 502.466938 60.649091 
L 503.582938 75.943192 
L 503.861938 74.871327 
L 504.419938 71.267642 
L 504.698938 71.507887 
L 505.535938 77.256843 
L 505.814938 75.938572 
L 506.651938 64.557703 
L 506.930938 64.282037 
L 507.767938 68.64958 
L 508.325938 72.066921 
L 508.883938 77.774295 
L 509.441938 82.834855 
L 509.720938 82.693172 
L 510.836938 75.565883 
L 511.394938 68.697321 
L 511.952938 62.460174 
L 512.231938 61.420649 
L 512.510938 62.367772 
L 512.789938 65.960676 
L 513.626938 85.17571 
L 513.905938 87.478064 
L 514.184938 86.823549 
L 514.742938 83.868219 
L 515.300938 81.33948 
L 515.579938 79.770183 
L 515.858938 79.25735 
L 516.137938 80.333836 
L 516.416938 81.972435 
L 516.695938 82.245021 
L 516.974938 79.742462 
L 518.090938 59.081334 
L 518.369938 59.441703 
L 518.648938 62.674239 
L 520.043938 88.021697 
L 520.322938 90.428774 
L 520.601938 91.847148 
L 520.880938 92.517063 
L 521.159938 92.078153 
L 521.717938 87.852293 
L 521.996938 85.965749 
L 522.554938 83.433929 
L 522.833938 80.424698 
L 523.670938 68.65882 
L 524.228938 66.019198 
L 525.065938 61.733277 
L 525.344938 61.497651 
L 525.623938 62.437073 
L 526.181938 66.599792 
L 526.739938 70.981195 
L 527.018938 72.291766 
L 527.855938 74.481698 
L 528.134938 75.85079 
L 528.413938 76.528406 
L 528.692938 75.324098 
L 529.250938 67.280488 
L 529.808938 60.248682 
L 530.087938 60.251762 
L 530.366938 63.042308 
L 531.203938 75.222455 
L 531.482938 75.455001 
L 532.040938 72.110042 
L 532.319938 71.515588 
L 532.598938 72.556652 
L 533.156938 76.599248 
L 533.435938 76.622348 
L 533.714938 74.042787 
L 534.272938 66.219403 
L 534.551938 64.688606 
L 534.830938 65.202979 
L 535.946938 71.246081 
L 536.504938 76.221939 
L 537.062938 81.79995 
L 537.341938 82.663911 
L 537.620938 81.78301 
L 538.736938 74.135189 
L 539.573938 64.026391 
L 539.852938 62.256889 
L 540.131938 62.212228 
L 540.410938 64.43604 
L 540.968938 75.876971 
L 541.526938 86.155173 
L 541.805938 86.963692 
L 542.921938 81.990915 
L 543.479938 79.479116 
L 543.758938 79.754782 
L 544.316938 82.023256 
L 544.595938 80.92983 
L 544.874938 77.12594 
L 545.711938 60.952478 
L 545.990938 59.632667 
L 546.269938 61.392929 
L 546.827938 70.643927 
L 547.664938 85.945728 
L 548.222938 90.870765 
L 548.501938 91.894889 
L 548.780938 92.008851 
L 549.059938 90.913886 
L 549.896938 85.265032 
L 550.175938 84.025303 
L 550.454938 81.847692 
L 551.570938 68.078226 
L 552.965938 61.939642 
L 553.244938 62.28461 
L 553.523938 63.647542 
L 554.639938 71.760453 
L 555.197938 73.29587 
L 555.476938 74.052027 
L 556.034938 76.221939 
L 556.313938 75.964753 
L 556.592938 73.71476 
L 557.429938 61.898061 
L 557.708938 60.60135 
L 557.987938 61.970442 
L 559.103938 75.387239 
L 559.382938 74.728103 
L 559.940938 71.932937 
L 560.219938 72.151623 
L 561.056938 76.634668 
L 561.335938 75.382619 
L 562.172938 65.70041 
L 562.451938 65.202979 
L 562.730938 66.160881 
L 563.846938 72.44577 
L 564.962938 82.143379 
L 565.241938 82.135678 
L 565.799938 79.141848 
L 566.357938 75.398019 
L 567.473938 63.435017 
L 567.752938 62.546416 
L 568.031938 63.613661 
L 568.310938 67.063342 
L 569.147938 84.068424 
L 569.426938 86.384639 
L 569.705938 86.222935 
L 571.100938 79.945747 
L 571.379938 79.580758 
L 571.937938 81.479623 
L 572.216938 81.402621 
L 572.495938 79.003244 
L 573.611938 60.641391 
L 573.890938 60.858536 
L 574.169938 63.689123 
L 575.006938 78.892362 
L 575.564938 87.27786 
L 575.843938 89.691097 
L 576.122938 91.11101 
L 576.401938 91.668503 
L 576.680938 91.188012 
L 577.238938 87.585867 
L 578.354938 79.981167 
L 579.191938 69.361077 
L 579.749938 66.411907 
L 580.586938 62.612637 
L 580.865938 62.424753 
L 581.144938 63.262533 
L 581.702938 67.055642 
L 582.260938 71.084377 
L 582.818938 73.103365 
L 583.097938 73.756341 
L 583.655938 75.763008 
L 583.934938 76.127997 
L 584.213938 74.899047 
L 584.771938 67.764059 
L 585.329938 61.580813 
L 585.608938 61.616234 
L 585.887938 64.075672 
L 586.724938 74.698843 
L 587.003938 75.113113 
L 587.840938 72.157783 
L 588.119938 73.029443 
L 588.677938 76.197298 
L 588.956938 76.044835 
L 589.235938 73.807162 
L 589.793938 67.185005 
L 590.072938 65.69887 
L 590.351938 65.923716 
L 590.909938 68.503276 
L 591.467938 71.62647 
L 592.025938 76.357462 
L 592.583938 81.254778 
L 592.862938 82.052516 
L 593.141938 81.416481 
L 593.978938 76.446784 
L 594.536938 70.971955 
L 595.094938 64.881111 
L 595.373938 63.287173 
L 595.652938 63.374955 
L 595.931938 65.587988 
L 596.489938 75.889291 
L 597.047938 85.078688 
L 597.326938 86.133613 
L 597.605938 85.432896 
L 599.000938 79.723981 
L 599.279938 79.931886 
L 599.558938 80.862068 
L 599.837938 81.36874 
L 600.116938 80.155192 
L 600.395938 76.671629 
L 601.232938 62.338511 
L 601.511938 61.091081 
L 601.790938 62.584917 
L 602.348938 71.019696 
L 603.185938 85.305073 
L 603.743938 90.148488 
L 604.022938 91.11717 
L 604.301938 91.155671 
L 604.580938 90.160808 
L 605.975938 81.334859 
L 607.091938 68.686541 
L 608.207938 63.431937 
L 608.486938 62.825162 
L 608.765938 63.14241 
L 609.044938 64.369819 
L 610.160938 71.838995 
L 610.439938 72.829239 
L 610.439938 72.829239 
" style="fill:none;stroke:#1f77b4;stroke-linecap:square;stroke-width:1.5;"/>
   </g>
   <g id="patch_3">
    <path d="M 52.160938 133.198125 
L 52.160938 22.318125 
" style="fill:none;stroke:#000000;stroke-linecap:square;stroke-linejoin:miter;stroke-width:0.8;"/>
   </g>
   <g id="patch_4">
    <path d="M 610.160938 133.198125 
L 610.160938 22.318125 
" style="fill:none;stroke:#000000;stroke-linecap:square;stroke-linejoin:miter;stroke-width:0.8;"/>
   </g>
   <g id="patch_5">
    <path d="M 52.160938 133.198125 
L 610.160938 133.198125 
" style="fill:none;stroke:#000000;stroke-linecap:square;stroke-linejoin:miter;stroke-width:0.8;"/>
   </g>
   <g id="patch_6">
    <path d="M 52.160938 22.318125 
L 610.160938 22.318125 
" style="fill:none;stroke:#000000;stroke-linecap:square;stroke-linejoin:miter;stroke-width:0.8;"/>
   </g>
   <g id="text_17">
    <!-- ChromaticProgression -->
    <defs>
     <path d="M 64.40625 67.28125 
L 64.40625 56.890625 
Q 59.421875 61.53125 53.78125 63.8125 
Q 48.140625 66.109375 41.796875 66.109375 
Q 29.296875 66.109375 22.65625 58.46875 
Q 16.015625 50.828125 16.015625 36.375 
Q 16.015625 21.96875 22.65625 14.328125 
Q 29.296875 6.6875 41.796875 6.6875 
Q 48.140625 6.6875 53.78125 8.984375 
Q 59.421875 11.28125 64.40625 15.921875 
L 64.40625 5.609375 
Q 59.234375 2.09375 53.4375 0.328125 
Q 47.65625 -1.421875 41.21875 -1.421875 
Q 24.65625 -1.421875 15.125 8.703125 
Q 5.609375 18.84375 5.609375 36.375 
Q 5.609375 53.953125 15.125 64.078125 
Q 24.65625 74.21875 41.21875 74.21875 
Q 47.75 74.21875 53.53125 72.484375 
Q 59.328125 70.75 64.40625 67.28125 
z
" id="DejaVuSans-67"/>
     <path d="M 54.890625 33.015625 
L 54.890625 0 
L 45.90625 0 
L 45.90625 32.71875 
Q 45.90625 40.484375 42.875 44.328125 
Q 39.84375 48.1875 33.796875 48.1875 
Q 26.515625 48.1875 22.3125 43.546875 
Q 18.109375 38.921875 18.109375 30.90625 
L 18.109375 0 
L 9.078125 0 
L 9.078125 75.984375 
L 18.109375 75.984375 
L 18.109375 46.1875 
Q 21.34375 51.125 25.703125 53.5625 
Q 30.078125 56 35.796875 56 
Q 45.21875 56 50.046875 50.171875 
Q 54.890625 44.34375 54.890625 33.015625 
z
" id="DejaVuSans-104"/>
     <path d="M 30.609375 48.390625 
Q 23.390625 48.390625 19.1875 42.75 
Q 14.984375 37.109375 14.984375 27.296875 
Q 14.984375 17.484375 19.15625 11.84375 
Q 23.34375 6.203125 30.609375 6.203125 
Q 37.796875 6.203125 41.984375 11.859375 
Q 46.1875 17.53125 46.1875 27.296875 
Q 46.1875 37.015625 41.984375 42.703125 
Q 37.796875 48.390625 30.609375 48.390625 
z
M 30.609375 56 
Q 42.328125 56 49.015625 48.375 
Q 55.71875 40.765625 55.71875 27.296875 
Q 55.71875 13.875 49.015625 6.21875 
Q 42.328125 -1.421875 30.609375 -1.421875 
Q 18.84375 -1.421875 12.171875 6.21875 
Q 5.515625 13.875 5.515625 27.296875 
Q 5.515625 40.765625 12.171875 48.375 
Q 18.84375 56 30.609375 56 
z
" id="DejaVuSans-111"/>
     <path d="M 52 44.1875 
Q 55.375 50.25 60.0625 53.125 
Q 64.75 56 71.09375 56 
Q 79.640625 56 84.28125 50.015625 
Q 88.921875 44.046875 88.921875 33.015625 
L 88.921875 0 
L 79.890625 0 
L 79.890625 32.71875 
Q 79.890625 40.578125 77.09375 44.375 
Q 74.3125 48.1875 68.609375 48.1875 
Q 61.625 48.1875 57.5625 43.546875 
Q 53.515625 38.921875 53.515625 30.90625 
L 53.515625 0 
L 44.484375 0 
L 44.484375 32.71875 
Q 44.484375 40.625 41.703125 44.40625 
Q 38.921875 48.1875 33.109375 48.1875 
Q 26.21875 48.1875 22.15625 43.53125 
Q 18.109375 38.875 18.109375 30.90625 
L 18.109375 0 
L 9.078125 0 
L 9.078125 54.6875 
L 18.109375 54.6875 
L 18.109375 46.1875 
Q 21.1875 51.21875 25.484375 53.609375 
Q 29.78125 56 35.6875 56 
Q 41.65625 56 45.828125 52.96875 
Q 50 49.953125 52 44.1875 
z
" id="DejaVuSans-109"/>
     <path d="M 18.3125 70.21875 
L 18.3125 54.6875 
L 36.8125 54.6875 
L 36.8125 47.703125 
L 18.3125 47.703125 
L 18.3125 18.015625 
Q 18.3125 11.328125 20.140625 9.421875 
Q 21.96875 7.515625 27.59375 7.515625 
L 36.8125 7.515625 
L 36.8125 0 
L 27.59375 0 
Q 17.1875 0 13.234375 3.875 
Q 9.28125 7.765625 9.28125 18.015625 
L 9.28125 47.703125 
L 2.6875 47.703125 
L 2.6875 54.6875 
L 9.28125 54.6875 
L 9.28125 70.21875 
z
" id="DejaVuSans-116"/>
     <path d="M 9.421875 54.6875 
L 18.40625 54.6875 
L 18.40625 0 
L 9.421875 0 
z
M 9.421875 75.984375 
L 18.40625 75.984375 
L 18.40625 64.59375 
L 9.421875 64.59375 
z
" id="DejaVuSans-105"/>
     <path d="M 48.78125 52.59375 
L 48.78125 44.1875 
Q 44.96875 46.296875 41.140625 47.34375 
Q 37.3125 48.390625 33.40625 48.390625 
Q 24.65625 48.390625 19.8125 42.84375 
Q 14.984375 37.3125 14.984375 27.296875 
Q 14.984375 17.28125 19.8125 11.734375 
Q 24.65625 6.203125 33.40625 6.203125 
Q 37.3125 6.203125 41.140625 7.25 
Q 44.96875 8.296875 48.78125 10.40625 
L 48.78125 2.09375 
Q 45.015625 0.34375 40.984375 -0.53125 
Q 36.96875 -1.421875 32.421875 -1.421875 
Q 20.0625 -1.421875 12.78125 6.34375 
Q 5.515625 14.109375 5.515625 27.296875 
Q 5.515625 40.671875 12.859375 48.328125 
Q 20.21875 56 33.015625 56 
Q 37.15625 56 41.109375 55.140625 
Q 45.0625 54.296875 48.78125 52.59375 
z
" id="DejaVuSans-99"/>
     <path d="M 19.671875 64.796875 
L 19.671875 37.40625 
L 32.078125 37.40625 
Q 38.96875 37.40625 42.71875 40.96875 
Q 46.484375 44.53125 46.484375 51.125 
Q 46.484375 57.671875 42.71875 61.234375 
Q 38.96875 64.796875 32.078125 64.796875 
z
M 9.8125 72.90625 
L 32.078125 72.90625 
Q 44.34375 72.90625 50.609375 67.359375 
Q 56.890625 61.8125 56.890625 51.125 
Q 56.890625 40.328125 50.609375 34.8125 
Q 44.34375 29.296875 32.078125 29.296875 
L 19.671875 29.296875 
L 19.671875 0 
L 9.8125 0 
z
" id="DejaVuSans-80"/>
     <path d="M 45.40625 27.984375 
Q 45.40625 37.75 41.375 43.109375 
Q 37.359375 48.484375 30.078125 48.484375 
Q 22.859375 48.484375 18.828125 43.109375 
Q 14.796875 37.75 14.796875 27.984375 
Q 14.796875 18.265625 18.828125 12.890625 
Q 22.859375 7.515625 30.078125 7.515625 
Q 37.359375 7.515625 41.375 12.890625 
Q 45.40625 18.265625 45.40625 27.984375 
z
M 54.390625 6.78125 
Q 54.390625 -7.171875 48.1875 -13.984375 
Q 42 -20.796875 29.203125 -20.796875 
Q 24.46875 -20.796875 20.265625 -20.09375 
Q 16.0625 -19.390625 12.109375 -17.921875 
L 12.109375 -9.1875 
Q 16.0625 -11.328125 19.921875 -12.34375 
Q 23.78125 -13.375 27.78125 -13.375 
Q 36.625 -13.375 41.015625 -8.765625 
Q 45.40625 -4.15625 45.40625 5.171875 
L 45.40625 9.625 
Q 42.625 4.78125 38.28125 2.390625 
Q 33.9375 0 27.875 0 
Q 17.828125 0 11.671875 7.65625 
Q 5.515625 15.328125 5.515625 27.984375 
Q 5.515625 40.671875 11.671875 48.328125 
Q 17.828125 56 27.875 56 
Q 33.9375 56 38.28125 53.609375 
Q 42.625 51.21875 45.40625 46.390625 
L 45.40625 54.6875 
L 54.390625 54.6875 
z
" id="DejaVuSans-103"/>
     <path d="M 44.28125 53.078125 
L 44.28125 44.578125 
Q 40.484375 46.53125 36.375 47.5 
Q 32.28125 48.484375 27.875 48.484375 
Q 21.1875 48.484375 17.84375 46.4375 
Q 14.5 44.390625 14.5 40.28125 
Q 14.5 37.15625 16.890625 35.375 
Q 19.28125 33.59375 26.515625 31.984375 
L 29.59375 31.296875 
Q 39.15625 29.25 43.1875 25.515625 
Q 47.21875 21.78125 47.21875 15.09375 
Q 47.21875 7.46875 41.1875 3.015625 
Q 35.15625 -1.421875 24.609375 -1.421875 
Q 20.21875 -1.421875 15.453125 -0.5625 
Q 10.6875 0.296875 5.421875 2 
L 5.421875 11.28125 
Q 10.40625 8.6875 15.234375 7.390625 
Q 20.0625 6.109375 24.8125 6.109375 
Q 31.15625 6.109375 34.5625 8.28125 
Q 37.984375 10.453125 37.984375 14.40625 
Q 37.984375 18.0625 35.515625 20.015625 
Q 33.0625 21.96875 24.703125 23.78125 
L 21.578125 24.515625 
Q 13.234375 26.265625 9.515625 29.90625 
Q 5.8125 33.546875 5.8125 39.890625 
Q 5.8125 47.609375 11.28125 51.796875 
Q 16.75 56 26.8125 56 
Q 31.78125 56 36.171875 55.265625 
Q 40.578125 54.546875 44.28125 53.078125 
z
" id="DejaVuSans-115"/>
    </defs>
    <g transform="translate(265.083125 16.318125)scale(0.12 -0.12)">
     <use xlink:href="#DejaVuSans-67"/>
     <use x="69.824219" xlink:href="#DejaVuSans-104"/>
     <use x="133.203125" xlink:href="#DejaVuSans-114"/>
     <use x="174.285156" xlink:href="#DejaVuSans-111"/>
     <use x="235.466797" xlink:href="#DejaVuSans-109"/>
     <use x="332.878906" xlink:href="#DejaVuSans-97"/>
     <use x="394.158203" xlink:href="#DejaVuSans-116"/>
     <use x="433.367188" xlink:href="#DejaVuSans-105"/>
     <use x="461.150391" xlink:href="#DejaVuSans-99"/>
     <use x="516.130859" xlink:href="#DejaVuSans-80"/>
     <use x="576.417969" xlink:href="#DejaVuSans-114"/>
     <use x="617.5" xlink:href="#DejaVuSans-111"/>
     <use x="678.681641" xlink:href="#DejaVuSans-103"/>
     <use x="742.158203" xlink:href="#DejaVuSans-114"/>
     <use x="783.240234" xlink:href="#DejaVuSans-101"/>
     <use x="844.763672" xlink:href="#DejaVuSans-115"/>
     <use x="896.863281" xlink:href="#DejaVuSans-115"/>
     <use x="948.962891" xlink:href="#DejaVuSans-105"/>
     <use x="976.746094" xlink:href="#DejaVuSans-111"/>
     <use x="1037.927734" xlink:href="#DejaVuSans-110"/>
    </g>
   </g>
  </g>
 </g>
 <defs>
  <clipPath id="p831c97af7e">
   <rect height="110.88" width="558" x="52.160938" y="22.318125"/>
  </clipPath>
 </defs>
</svg>
